<mxfile host="app.diagrams.net" agent="Mozilla/5.0 (Windows NT 10.0; Win64; x64) AppleWebKit/537.36 (KHTML, like Gecko) Chrome/138.0.0.0 Safari/537.36" version="27.2.0">
  <diagram name="Page-1" id="dSAH4xBMg87zTjZU_TJG">
    <mxGraphModel dx="648" dy="377" grid="1" gridSize="10" guides="1" tooltips="1" connect="1" arrows="1" fold="1" page="1" pageScale="1" pageWidth="850" pageHeight="1100" math="0" shadow="0">
      <root>
        <mxCell id="0" />
        <mxCell id="1" parent="0" />
        <mxCell id="6n5OCokBD1oLEESb4p7_-2" value="Index.html" style="rounded=1;whiteSpace=wrap;html=1;" parent="1" vertex="1">
          <mxGeometry x="40" y="85" width="120" height="30" as="geometry" />
        </mxCell>
        <mxCell id="6n5OCokBD1oLEESb4p7_-17" style="edgeStyle=orthogonalEdgeStyle;rounded=0;orthogonalLoop=1;jettySize=auto;html=1;exitX=1;exitY=0.5;exitDx=0;exitDy=0;entryX=0;entryY=0.5;entryDx=0;entryDy=0;" parent="1" source="6n5OCokBD1oLEESb4p7_-4" target="6n5OCokBD1oLEESb4p7_-9" edge="1">
          <mxGeometry relative="1" as="geometry" />
        </mxCell>
        <mxCell id="6n5OCokBD1oLEESb4p7_-18" style="edgeStyle=orthogonalEdgeStyle;rounded=0;orthogonalLoop=1;jettySize=auto;html=1;exitX=1;exitY=0.5;exitDx=0;exitDy=0;entryX=0;entryY=0.5;entryDx=0;entryDy=0;" parent="1" source="6n5OCokBD1oLEESb4p7_-4" target="6n5OCokBD1oLEESb4p7_-10" edge="1">
          <mxGeometry relative="1" as="geometry" />
        </mxCell>
        <mxCell id="6n5OCokBD1oLEESb4p7_-19" style="edgeStyle=orthogonalEdgeStyle;rounded=0;orthogonalLoop=1;jettySize=auto;html=1;exitX=1;exitY=0.5;exitDx=0;exitDy=0;entryX=0;entryY=0.5;entryDx=0;entryDy=0;" parent="1" source="6n5OCokBD1oLEESb4p7_-4" target="6n5OCokBD1oLEESb4p7_-13" edge="1">
          <mxGeometry relative="1" as="geometry" />
        </mxCell>
        <mxCell id="6n5OCokBD1oLEESb4p7_-20" style="edgeStyle=orthogonalEdgeStyle;rounded=0;orthogonalLoop=1;jettySize=auto;html=1;exitX=1;exitY=0.5;exitDx=0;exitDy=0;entryX=0;entryY=0.5;entryDx=0;entryDy=0;" parent="1" source="6n5OCokBD1oLEESb4p7_-4" target="6n5OCokBD1oLEESb4p7_-11" edge="1">
          <mxGeometry relative="1" as="geometry" />
        </mxCell>
        <mxCell id="6n5OCokBD1oLEESb4p7_-21" style="edgeStyle=orthogonalEdgeStyle;rounded=0;orthogonalLoop=1;jettySize=auto;html=1;exitX=1;exitY=0.5;exitDx=0;exitDy=0;entryX=0;entryY=0.5;entryDx=0;entryDy=0;" parent="1" source="6n5OCokBD1oLEESb4p7_-4" target="6n5OCokBD1oLEESb4p7_-12" edge="1">
          <mxGeometry relative="1" as="geometry" />
        </mxCell>
        <mxCell id="6n5OCokBD1oLEESb4p7_-22" style="edgeStyle=orthogonalEdgeStyle;rounded=0;orthogonalLoop=1;jettySize=auto;html=1;exitX=1;exitY=0.5;exitDx=0;exitDy=0;entryX=0;entryY=0.5;entryDx=0;entryDy=0;" parent="1" source="6n5OCokBD1oLEESb4p7_-4" target="6n5OCokBD1oLEESb4p7_-16" edge="1">
          <mxGeometry relative="1" as="geometry" />
        </mxCell>
        <mxCell id="6n5OCokBD1oLEESb4p7_-4" value="Home" style="rounded=1;whiteSpace=wrap;html=1;" parent="1" vertex="1">
          <mxGeometry x="200" y="85" width="120" height="30" as="geometry" />
        </mxCell>
        <mxCell id="6n5OCokBD1oLEESb4p7_-27" style="edgeStyle=orthogonalEdgeStyle;rounded=0;orthogonalLoop=1;jettySize=auto;html=1;exitX=1;exitY=0.5;exitDx=0;exitDy=0;entryX=0;entryY=0.5;entryDx=0;entryDy=0;" parent="1" source="6n5OCokBD1oLEESb4p7_-5" target="6n5OCokBD1oLEESb4p7_-23" edge="1">
          <mxGeometry relative="1" as="geometry" />
        </mxCell>
        <mxCell id="6n5OCokBD1oLEESb4p7_-28" style="edgeStyle=orthogonalEdgeStyle;rounded=0;orthogonalLoop=1;jettySize=auto;html=1;exitX=1;exitY=0.5;exitDx=0;exitDy=0;entryX=0;entryY=0.5;entryDx=0;entryDy=0;" parent="1" source="6n5OCokBD1oLEESb4p7_-5" target="6n5OCokBD1oLEESb4p7_-25" edge="1">
          <mxGeometry relative="1" as="geometry" />
        </mxCell>
        <mxCell id="6n5OCokBD1oLEESb4p7_-29" style="edgeStyle=orthogonalEdgeStyle;rounded=0;orthogonalLoop=1;jettySize=auto;html=1;exitX=1;exitY=0.5;exitDx=0;exitDy=0;entryX=0;entryY=0.5;entryDx=0;entryDy=0;" parent="1" source="6n5OCokBD1oLEESb4p7_-5" target="6n5OCokBD1oLEESb4p7_-26" edge="1">
          <mxGeometry relative="1" as="geometry" />
        </mxCell>
        <mxCell id="6n5OCokBD1oLEESb4p7_-31" style="edgeStyle=orthogonalEdgeStyle;rounded=0;orthogonalLoop=1;jettySize=auto;html=1;exitX=1;exitY=0.5;exitDx=0;exitDy=0;entryX=0;entryY=0.5;entryDx=0;entryDy=0;" parent="1" source="6n5OCokBD1oLEESb4p7_-5" target="6n5OCokBD1oLEESb4p7_-30" edge="1">
          <mxGeometry relative="1" as="geometry" />
        </mxCell>
        <mxCell id="6n5OCokBD1oLEESb4p7_-5" value="Events" style="rounded=1;whiteSpace=wrap;html=1;" parent="1" vertex="1">
          <mxGeometry x="200" y="220" width="120" height="30" as="geometry" />
        </mxCell>
        <mxCell id="6n5OCokBD1oLEESb4p7_-38" style="edgeStyle=orthogonalEdgeStyle;rounded=0;orthogonalLoop=1;jettySize=auto;html=1;exitX=1;exitY=0.5;exitDx=0;exitDy=0;entryX=0;entryY=0.5;entryDx=0;entryDy=0;" parent="1" source="6n5OCokBD1oLEESb4p7_-6" target="6n5OCokBD1oLEESb4p7_-32" edge="1">
          <mxGeometry relative="1" as="geometry" />
        </mxCell>
        <mxCell id="6n5OCokBD1oLEESb4p7_-39" style="edgeStyle=orthogonalEdgeStyle;rounded=0;orthogonalLoop=1;jettySize=auto;html=1;exitX=1;exitY=0.5;exitDx=0;exitDy=0;entryX=0;entryY=0.5;entryDx=0;entryDy=0;" parent="1" source="6n5OCokBD1oLEESb4p7_-6" target="6n5OCokBD1oLEESb4p7_-33" edge="1">
          <mxGeometry relative="1" as="geometry" />
        </mxCell>
        <mxCell id="6n5OCokBD1oLEESb4p7_-6" value="Members" style="rounded=1;whiteSpace=wrap;html=1;" parent="1" vertex="1">
          <mxGeometry x="200" y="320" width="120" height="30" as="geometry" />
        </mxCell>
        <mxCell id="6n5OCokBD1oLEESb4p7_-45" style="edgeStyle=orthogonalEdgeStyle;rounded=0;orthogonalLoop=1;jettySize=auto;html=1;exitX=1;exitY=0.5;exitDx=0;exitDy=0;entryX=0;entryY=0.5;entryDx=0;entryDy=0;" parent="1" source="6n5OCokBD1oLEESb4p7_-7" target="6n5OCokBD1oLEESb4p7_-40" edge="1">
          <mxGeometry relative="1" as="geometry" />
        </mxCell>
        <mxCell id="6n5OCokBD1oLEESb4p7_-46" style="edgeStyle=orthogonalEdgeStyle;rounded=0;orthogonalLoop=1;jettySize=auto;html=1;exitX=1;exitY=0.5;exitDx=0;exitDy=0;entryX=0;entryY=0.5;entryDx=0;entryDy=0;" parent="1" source="6n5OCokBD1oLEESb4p7_-7" target="6n5OCokBD1oLEESb4p7_-41" edge="1">
          <mxGeometry relative="1" as="geometry" />
        </mxCell>
        <mxCell id="6n5OCokBD1oLEESb4p7_-47" style="edgeStyle=orthogonalEdgeStyle;rounded=0;orthogonalLoop=1;jettySize=auto;html=1;exitX=1;exitY=0.5;exitDx=0;exitDy=0;entryX=0;entryY=0.5;entryDx=0;entryDy=0;" parent="1" source="6n5OCokBD1oLEESb4p7_-7" target="6n5OCokBD1oLEESb4p7_-42" edge="1">
          <mxGeometry relative="1" as="geometry" />
        </mxCell>
        <mxCell id="6n5OCokBD1oLEESb4p7_-48" style="edgeStyle=orthogonalEdgeStyle;rounded=0;orthogonalLoop=1;jettySize=auto;html=1;exitX=1;exitY=0.5;exitDx=0;exitDy=0;entryX=0;entryY=0.5;entryDx=0;entryDy=0;" parent="1" source="6n5OCokBD1oLEESb4p7_-7" target="6n5OCokBD1oLEESb4p7_-43" edge="1">
          <mxGeometry relative="1" as="geometry" />
        </mxCell>
        <mxCell id="6n5OCokBD1oLEESb4p7_-49" style="edgeStyle=orthogonalEdgeStyle;rounded=0;orthogonalLoop=1;jettySize=auto;html=1;exitX=1;exitY=0.5;exitDx=0;exitDy=0;entryX=0;entryY=0.5;entryDx=0;entryDy=0;" parent="1" source="6n5OCokBD1oLEESb4p7_-7" target="6n5OCokBD1oLEESb4p7_-44" edge="1">
          <mxGeometry relative="1" as="geometry" />
        </mxCell>
        <mxCell id="6n5OCokBD1oLEESb4p7_-7" value="Sponsors" style="rounded=1;whiteSpace=wrap;html=1;" parent="1" vertex="1">
          <mxGeometry x="200" y="430" width="120" height="30" as="geometry" />
        </mxCell>
        <mxCell id="6n5OCokBD1oLEESb4p7_-8" value="About us" style="rounded=1;whiteSpace=wrap;html=1;" parent="1" vertex="1">
          <mxGeometry x="200" y="535" width="120" height="30" as="geometry" />
        </mxCell>
        <mxCell id="6n5OCokBD1oLEESb4p7_-9" value="Hero Section" style="text;html=1;align=left;verticalAlign=middle;whiteSpace=wrap;rounded=0;" parent="1" vertex="1">
          <mxGeometry x="360" y="40" width="130" height="20" as="geometry" />
        </mxCell>
        <mxCell id="6n5OCokBD1oLEESb4p7_-10" value="What is GDG Ghardaia" style="text;html=1;align=left;verticalAlign=middle;whiteSpace=wrap;rounded=0;" parent="1" vertex="1">
          <mxGeometry x="360" y="60" width="130" height="20" as="geometry" />
        </mxCell>
        <mxCell id="6n5OCokBD1oLEESb4p7_-11" value="GDG in numbers" style="text;html=1;align=left;verticalAlign=middle;whiteSpace=wrap;rounded=0;" parent="1" vertex="1">
          <mxGeometry x="360" y="100" width="130" height="20" as="geometry" />
        </mxCell>
        <mxCell id="6n5OCokBD1oLEESb4p7_-12" value="Sponsors Section" style="text;html=1;align=left;verticalAlign=middle;whiteSpace=wrap;rounded=0;" parent="1" vertex="1">
          <mxGeometry x="360" y="120" width="130" height="20" as="geometry" />
        </mxCell>
        <mxCell id="6n5OCokBD1oLEESb4p7_-13" value="Upcoming Events" style="text;html=1;align=left;verticalAlign=middle;whiteSpace=wrap;rounded=0;" parent="1" vertex="1">
          <mxGeometry x="360" y="80" width="130" height="20" as="geometry" />
        </mxCell>
        <mxCell id="6n5OCokBD1oLEESb4p7_-16" value="Discord section" style="text;html=1;align=left;verticalAlign=middle;whiteSpace=wrap;rounded=0;" parent="1" vertex="1">
          <mxGeometry x="360" y="140" width="130" height="20" as="geometry" />
        </mxCell>
        <mxCell id="6n5OCokBD1oLEESb4p7_-23" value="Search Bar + filters" style="text;html=1;align=left;verticalAlign=middle;whiteSpace=wrap;rounded=0;" parent="1" vertex="1">
          <mxGeometry x="360" y="190" width="160" height="20" as="geometry" />
        </mxCell>
        <mxCell id="6n5OCokBD1oLEESb4p7_-25" value="Upcoming Events (Timeline)" style="text;html=1;align=left;verticalAlign=middle;whiteSpace=wrap;rounded=0;" parent="1" vertex="1">
          <mxGeometry x="360" y="210" width="160" height="20" as="geometry" />
        </mxCell>
        <mxCell id="6n5OCokBD1oLEESb4p7_-26" value="Past Events (Timeline)" style="text;html=1;align=left;verticalAlign=middle;whiteSpace=wrap;rounded=0;" parent="1" vertex="1">
          <mxGeometry x="360" y="230" width="160" height="20" as="geometry" />
        </mxCell>
        <mxCell id="6n5OCokBD1oLEESb4p7_-30" value="Event details (popup)" style="text;html=1;align=left;verticalAlign=middle;whiteSpace=wrap;rounded=0;" parent="1" vertex="1">
          <mxGeometry x="360" y="265" width="160" height="20" as="geometry" />
        </mxCell>
        <mxCell id="6n5OCokBD1oLEESb4p7_-32" value="Search Bar + filters" style="text;html=1;align=left;verticalAlign=middle;whiteSpace=wrap;rounded=0;" parent="1" vertex="1">
          <mxGeometry x="360" y="300" width="160" height="20" as="geometry" />
        </mxCell>
        <mxCell id="6n5OCokBD1oLEESb4p7_-33" value="Grid view list of members" style="text;html=1;align=left;verticalAlign=middle;whiteSpace=wrap;rounded=0;" parent="1" vertex="1">
          <mxGeometry x="360" y="360" width="160" height="20" as="geometry" />
        </mxCell>
        <mxCell id="6n5OCokBD1oLEESb4p7_-34" value="ADMINS" style="rounded=1;whiteSpace=wrap;html=1;arcSize=50;" parent="1" vertex="1">
          <mxGeometry x="350" y="330" width="70" height="20" as="geometry" />
        </mxCell>
        <mxCell id="6n5OCokBD1oLEESb4p7_-35" value="HR" style="rounded=1;whiteSpace=wrap;html=1;arcSize=50;" parent="1" vertex="1">
          <mxGeometry x="430" y="330" width="50" height="20" as="geometry" />
        </mxCell>
        <mxCell id="6n5OCokBD1oLEESb4p7_-36" value="DEV" style="rounded=1;whiteSpace=wrap;html=1;arcSize=50;" parent="1" vertex="1">
          <mxGeometry x="490" y="330" width="50" height="20" as="geometry" />
        </mxCell>
        <mxCell id="6n5OCokBD1oLEESb4p7_-37" value="MEDIA" style="rounded=1;whiteSpace=wrap;html=1;arcSize=50;" parent="1" vertex="1">
          <mxGeometry x="550" y="330" width="60" height="20" as="geometry" />
        </mxCell>
        <mxCell id="6n5OCokBD1oLEESb4p7_-40" value="Platinum Sponsors" style="text;html=1;align=left;verticalAlign=middle;whiteSpace=wrap;rounded=0;" parent="1" vertex="1">
          <mxGeometry x="360" y="390" width="160" height="20" as="geometry" />
        </mxCell>
        <mxCell id="6n5OCokBD1oLEESb4p7_-41" value="Gold Sponsors" style="text;html=1;align=left;verticalAlign=middle;whiteSpace=wrap;rounded=0;" parent="1" vertex="1">
          <mxGeometry x="360" y="410" width="160" height="20" as="geometry" />
        </mxCell>
        <mxCell id="6n5OCokBD1oLEESb4p7_-42" value="Silver Sponsors" style="text;html=1;align=left;verticalAlign=middle;whiteSpace=wrap;rounded=0;" parent="1" vertex="1">
          <mxGeometry x="360" y="430" width="160" height="20" as="geometry" />
        </mxCell>
        <mxCell id="6n5OCokBD1oLEESb4p7_-43" value="Partners (Google + Univ of Ghardaia)" style="text;html=1;align=left;verticalAlign=middle;whiteSpace=wrap;rounded=0;" parent="1" vertex="1">
          <mxGeometry x="360" y="460" width="210" height="20" as="geometry" />
        </mxCell>
        <mxCell id="6n5OCokBD1oLEESb4p7_-44" value="Collaborators" style="text;html=1;align=left;verticalAlign=middle;whiteSpace=wrap;rounded=0;" parent="1" vertex="1">
          <mxGeometry x="360" y="490" width="210" height="20" as="geometry" />
        </mxCell>
        <mxCell id="6n5OCokBD1oLEESb4p7_-50" value="Footer" style="text;html=1;align=left;verticalAlign=middle;whiteSpace=wrap;rounded=0;" parent="1" vertex="1">
          <mxGeometry x="360" y="160" width="130" height="20" as="geometry" />
        </mxCell>
        <mxCell id="6n5OCokBD1oLEESb4p7_-51" value="History of GDG" style="text;html=1;align=left;verticalAlign=middle;whiteSpace=wrap;rounded=0;" parent="1" vertex="1">
          <mxGeometry x="360" y="530" width="210" height="20" as="geometry" />
        </mxCell>
        <mxCell id="6n5OCokBD1oLEESb4p7_-52" value="History of GDG Ghardaia" style="text;html=1;align=left;verticalAlign=middle;whiteSpace=wrap;rounded=0;" parent="1" vertex="1">
          <mxGeometry x="360" y="550" width="210" height="20" as="geometry" />
        </mxCell>
        <mxCell id="6n5OCokBD1oLEESb4p7_-53" value="our vision / Goal" style="text;html=1;align=left;verticalAlign=middle;whiteSpace=wrap;rounded=0;" parent="1" vertex="1">
          <mxGeometry x="360" y="570" width="210" height="20" as="geometry" />
        </mxCell>
        <mxCell id="6n5OCokBD1oLEESb4p7_-54" value="Call to action" style="text;html=1;align=left;verticalAlign=middle;whiteSpace=wrap;rounded=0;" parent="1" vertex="1">
          <mxGeometry x="360" y="590" width="210" height="20" as="geometry" />
        </mxCell>
        <mxCell id="6n5OCokBD1oLEESb4p7_-55" value="Call to action" style="text;html=1;align=left;verticalAlign=middle;whiteSpace=wrap;rounded=0;" parent="1" vertex="1">
          <mxGeometry x="360" y="620" width="210" height="20" as="geometry" />
        </mxCell>
      </root>
    </mxGraphModel>
  </diagram>
</mxfile>
